<svg xmlns="http://www.w3.org/2000/svg" viewBox="0 0 76 21">
  <g>
    <path fill="#212B36"
          d="M6.5 13.3a2.4 2.4 0 002-1l.5-1 .2-1.1c0-.5 0-1-.2-1.4a3.3 3.3 0 00-.4-1C8.4 7.3 8 7 7.8 7c-.4-.2-.8-.3-1.3-.3s-.8 0-1.1.2c-.4.2-.6.4-.8.7l-.5 1a6.2 6.2 0 000 2.5c0 .4.2.8.4 1.1l.8.8c.3.2.7.3 1.2.3zm5.6 2c0 .4 0 1-.2 1.5 0 .6-.4 1.2-.8 1.7s-1 1-1.7 1.3a8.4 8.4 0 01-4.9.3 5.4 5.4 0 01-1.6-.7 3.9 3.9 0 01-1.1-1.1 3.3 3.3 0 01-.6-1.7h3.1c.2.6.4 1 .9 1.3.4.2.9.3 1.4.3 1 0 1.6-.3 2-.8a3 3 0 00.6-2v-1.5a3.1 3.1 0 01-1.5 1.3 5 5 0 01-4.2 0A4.2 4.2 0 012 14a5.1 5.1 0 01-.9-1.8A8.7 8.7 0 01.8 10c0-.8.1-1.5.4-2.2.2-.7.5-1.3.9-1.8a4.5 4.5 0 013.6-1.7c.8 0 1.4.2 2 .4A3.4 3.4 0 019 6.1V4.6h3v10.7zm2.5-10.7h3v2.1A3.8 3.8 0 0119.1 5a4.2 4.2 0 012.2-.7l.7.1v3a6 6 0 00-1.2-.2c-.5 0-1 .1-1.4.3l-1 .8a3 3 0 00-.5 1.1l-.1 1.5V16h-3.2V4.6zM26.4 3h-3.1V.3h3.1v2.6zm-3.1 1.7h3.1V16h-3.1V4.6zm5.6 0h3v1.6c.4-.7.9-1.1 1.5-1.4a5.3 5.3 0 014-.1c.6.2 1 .5 1.3 1 .3.3.5.8.6 1.4.2.6.2 1.2.2 1.9v7h-3V9.6a4 4 0 00-.5-2.1c-.3-.5-.8-.7-1.6-.7s-1.5.2-1.8.7C32.2 8 32 9 32 10v6h-3.1V4.6zm13.7 2.1h-1.9v-2h1.9v-1c0-1 .3-1.8 1-2.4.6-.7 1.5-1 2.8-1h1.7v2.4a9.6 9.6 0 00-1.2 0c-.4 0-.7 0-.9.2-.2.2-.3.6-.3 1v.7H48v2.1h-2.2V16h-3.1V6.7zm14.3 2.4c-.1-.8-.4-1.4-.8-1.8-.4-.4-1-.6-1.7-.6-.5 0-1 0-1.2.2A2.4 2.4 0 0052 8.3l-.2.8h5zm-5 2c0 1 .2 1.7.7 2.2.5.4 1.1.6 2 .6.6 0 1.2-.1 1.6-.4.5-.3.8-.7.9-1h2.7a5.2 5.2 0 01-2 3 6 6 0 01-3.3.8c-1 0-1.7-.2-2.4-.4a5 5 0 01-3-3.2 7 7 0 01-.4-2.4c0-.8.1-1.6.4-2.4a5.6 5.6 0 015.4-3.6 5 5 0 014.3 2c.5.7.8 1.4 1 2.2.2.8.3 1.7.2 2.6h-8.2zm10-6.5h3v2.1A3.8 3.8 0 0166.3 5a4.2 4.2 0 012.2-.7l.7.1v3a6 6 0 00-1.1-.2c-.6 0-1 .1-1.5.3l-1 .8-.5 1.2-.1 1.4V16h-3.1V4.6z"/>
    <path fill="#6554C0" d="M72 12h4v4h-4z"/>
  </g>
</svg>